<?xml version="1.0" standalone="no"?>
<!DOCTYPE svg PUBLIC "-//W3C//DTD SVG 20010904//EN"
 "http://www.w3.org/TR/2001/REC-SVG-20010904/DTD/svg10.dtd">
<svg version="1.0" xmlns="http://www.w3.org/2000/svg"
 width="1251.000000pt" height="676.000000pt" viewBox="0 0 1251.000000 676.000000"
 preserveAspectRatio="xMidYMid meet">

<g transform="translate(0.000000,676.000000) scale(0.100000,-0.100000)"
fill="#000000" stroke="none">
<path d="M5605 4716 c-16 -7 -41 -26 -55 -42 l-25 -28 33 27 c30 24 69 39 132
50 16 3 11 5 -15 5 -22 1 -53 -5 -70 -12z"/>
<path d="M6728 4723 c29 -2 74 -2 100 0 26 2 2 3 -53 3 -55 0 -76 -1 -47 -3z"/>
<path d="M6598 4713 c6 -2 18 -2 25 0 6 3 1 5 -13 5 -14 0 -19 -2 -12 -5z"/>
<path d="M6928 4713 c6 -2 18 -2 25 0 6 3 1 5 -13 5 -14 0 -19 -2 -12 -5z"/>
<path d="M5788 4672 c40 -40 47 -54 43 -94 -1 -10 3 -18 8 -18 15 0 14 -30 -4
-81 -13 -38 -13 -41 0 -25 18 24 29 95 20 136 -8 34 -55 94 -89 112 -11 6 -2
-8 22 -30z"/>
<path d="M6548 4703 c7 -3 16 -2 19 1 4 3 -2 6 -13 5 -11 0 -14 -3 -6 -6z"/>
<path d="M6988 4703 c7 -3 16 -2 19 1 4 3 -2 6 -13 5 -11 0 -14 -3 -6 -6z"/>
<path d="M6395 4666 c-132 -49 -148 -56 -143 -62 3 -3 32 7 64 21 33 15 95 37
139 50 44 13 69 24 55 24 -14 0 -65 -15 -115 -33z"/>
<path d="M7038 4693 c7 -3 16 -2 19 1 4 3 -2 6 -13 5 -11 0 -14 -3 -6 -6z"/>
<path d="M7159 4659 c30 -10 56 -17 58 -15 5 5 -86 36 -101 35 -6 0 13 -9 43
-20z"/>
<path d="M7230 4635 c0 -5 68 -35 79 -35 8 1 -61 39 -71 40 -5 0 -8 -2 -8 -5z"/>
<path d="M6168 4564 c-38 -20 -36 -28 2 -9 17 9 30 18 30 20 0 7 -1 6 -32 -11z"/>
<path d="M7350 4576 c0 -2 7 -7 16 -10 8 -3 12 -2 9 4 -6 10 -25 14 -25 6z"/>
<path d="M6060 4491 c-36 -27 -78 -64 -95 -82 -23 -26 -19 -24 17 8 25 23 69
58 97 78 44 32 59 45 49 45 -2 0 -32 -22 -68 -49z"/>
<path d="M7510 4477 c0 -2 28 -28 63 -58 34 -29 56 -46 48 -36 -16 20 -111
101 -111 94z"/>
<path d="M5373 4083 c-156 -3 -173 -5 -172 -21 0 -10 3 -12 6 -4 6 15 343 18
343 3 0 -5 -13 -45 -29 -88 -16 -43 -31 -94 -35 -113 -3 -19 7 1 23 45 16 44
38 102 50 128 25 59 25 58 4 55 -10 -1 -96 -4 -190 -5z"/>
<path d="M6645 4015 l-40 -14 40 7 c78 13 237 7 289 -11 27 -10 51 -16 53 -13
3 3 -25 14 -62 25 -79 25 -217 27 -280 6z"/>
<path d="M6528 3970 c-20 -11 -39 -24 -43 -29 -3 -6 15 2 40 15 25 14 45 28
45 30 0 6 -1 5 -42 -16z"/>
<path d="M6419 3889 l-44 -41 48 38 c26 21 47 40 47 41 0 8 -11 0 -51 -38z"/>
<path d="M7137 3880 c13 -19 84 -113 90 -120 22 -21 -34 64 -63 95 -20 22 -32
33 -27 25z"/>
<path d="M5902 3803 c-27 -76 -52 -211 -52 -283 0 -37 -5 -60 -12 -63 -10 -4
-10 -6 -1 -6 10 -1 13 -60 12 -251 0 -154 -3 -248 -9 -245 -12 7 -11 -116 1
-131 5 -6 7 -35 4 -65 -15 -179 -17 -269 -6 -269 7 0 11 -27 11 -80 0 -44 -4
-80 -9 -80 -4 0 -11 -39 -14 -87 -3 -49 -8 -97 -11 -108 -4 -11 1 -5 9 13 30
64 35 172 35 798 0 671 2 710 50 850 11 31 18 59 16 61 -2 2 -13 -23 -24 -54z"/>
<path d="M5471 3813 c-1 -6 -4 -20 -7 -30 -5 -17 -5 -17 6 0 6 10 9 23 6 30
-3 9 -5 9 -5 0z"/>
<path d="M6838 3763 c7 -3 16 -2 19 1 4 3 -2 6 -13 5 -11 0 -14 -3 -6 -6z"/>
<path d="M6916 3729 c27 -17 51 -35 52 -40 2 -5 8 -9 13 -9 6 0 7 5 3 11 -8
14 -95 69 -108 69 -5 0 12 -14 40 -31z"/>
<path d="M7282 3600 c0 -14 2 -19 5 -12 2 6 2 18 0 25 -3 6 -5 1 -5 -13z"/>
<path d="M6406 3569 c-3 -17 -6 -61 -6 -97 0 -56 5 -77 37 -139 20 -40 51 -88
67 -105 17 -18 29 -37 27 -43 -1 -5 1 -7 4 -3 4 4 27 -4 51 -17 51 -29 148
-55 195 -54 19 0 52 6 74 13 36 11 32 12 -55 8 -79 -3 -104 0 -152 18 -80 30
-159 104 -200 188 -30 61 -33 74 -33 164 0 54 -1 98 -1 98 -1 0 -4 -14 -8 -31z"/>
<path d="M7040 3523 c-3 -23 -2 -39 3 -34 5 5 7 24 5 42 -3 33 -4 33 -8 -8z"/>
<path d="M7282 3400 c0 -14 2 -19 5 -12 2 6 2 18 0 25 -3 6 -5 1 -5 -13z"/>
<path d="M7271 3344 c0 -11 3 -14 6 -6 3 7 2 16 -1 19 -3 4 -6 -2 -5 -13z"/>
<path d="M6930 3160 c-19 -11 -31 -19 -27 -20 11 0 67 29 67 35 0 7 -1 7 -40
-15z"/>
<path d="M7340 3055 c69 -69 127 -125 130 -125 2 0 -51 56 -120 125 -69 69
-127 125 -130 125 -2 0 51 -56 120 -125z"/>
<path d="M5981 2993 c-1 -41 12 -65 22 -41 3 7 6 5 6 -6 1 -11 4 -17 7 -13 7
7 114 -117 114 -132 0 -6 5 -11 12 -11 6 0 8 -3 5 -6 -9 -10 41 -46 53 -39 6
3 7 0 4 -9 -4 -11 0 -16 14 -16 11 0 22 -3 24 -7 2 -5 37 -24 78 -43 41 -19
77 -38 78 -42 2 -5 8 -8 14 -8 5 0 32 -11 59 -25 28 -14 49 -19 49 -13 0 6 3
8 8 4 4 -4 9 -89 13 -189 l5 -182 2 191 2 191 -62 17 c-177 49 -377 212 -495
402 -10 17 -12 14 -12 -23z"/>
<path d="M7150 2640 c-9 -6 -10 -10 -3 -10 6 0 15 5 18 10 8 12 4 12 -15 0z"/>
<path d="M7030 2590 c-8 -5 -10 -10 -5 -10 6 0 17 5 25 10 8 5 11 10 5 10 -5
0 -17 -5 -25 -10z"/>
<path d="M6899 2493 c-13 -16 -12 -17 4 -4 16 13 21 21 13 21 -2 0 -10 -8 -17
-17z"/>
<path d="M6844 2448 l-29 -33 33 29 c17 17 32 31 32 33 0 8 -8 1 -36 -29z"/>
<path d="M6784 2398 l-19 -23 23 19 c21 18 27 26 19 26 -2 0 -12 -10 -23 -22z"/>
<path d="M6729 2353 c-13 -16 -12 -17 4 -4 16 13 21 21 13 21 -2 0 -10 -8 -17
-17z"/>
<path d="M4547 2328 c8 -43 13 -48 13 -15 0 27 0 27 63 21 206 -19 190 -15
213 -59 12 -22 19 -43 17 -47 -2 -4 1 -9 7 -13 5 -3 10 -17 10 -31 0 -13 5
-24 10 -24 6 0 10 -9 10 -20 0 -18 9 -32 50 -79 21 -23 66 -51 85 -51 8 0 15
-4 15 -9 0 -5 8 -8 18 -6 9 1 23 -2 30 -8 21 -16 124 -15 188 3 76 21 138 57
184 106 34 37 33 37 -13 -5 -78 -69 -125 -86 -242 -86 -86 0 -106 3 -144 23
-106 57 -187 170 -198 278 l-6 54 -158 0 -158 0 6 -32z"/>
<path d="M6645 2284 l-50 -46 53 42 c45 36 59 51 50 50 -2 0 -25 -21 -53 -46z"/>
<path d="M4561 2224 c0 -11 3 -14 6 -6 3 7 2 16 -1 19 -3 4 -6 -2 -5 -13z"/>
<path d="M5796 2095 c-9 -26 -7 -32 5 -12 6 10 9 21 6 23 -2 3 -7 -2 -11 -11z"/>
<path d="M5775 2049 c-4 -6 -5 -12 -2 -15 2 -3 7 2 10 11 7 17 1 20 -8 4z"/>
<path d="M5735 1978 c-15 -23 -48 -65 -74 -92 l-45 -51 55 53 c31 30 66 71 78
93 29 52 21 50 -14 -3z"/>
<path d="M5589 1823 c-13 -16 -12 -17 4 -4 16 13 21 21 13 21 -2 0 -10 -8 -17
-17z"/>
</g>
</svg>
